<?xml version="1.0" encoding="utf-8"?>
<!-- Generator: Adobe Illustrator 17.0.0, SVG Export Plug-In . SVG Version: 6.00 Build 0)  -->
<!DOCTYPE svg PUBLIC "-//W3C//DTD SVG 1.1//EN" "http://www.w3.org/Graphics/SVG/1.1/DTD/svg11.dtd">
<svg version="1.1" id="Layer_1" xmlns="http://www.w3.org/2000/svg" xmlns:xlink="http://www.w3.org/1999/xlink" x="0px" y="0px"
	 width="50px" height="10px" viewBox="0 0 50 10" enable-background="new 0 0 50 10" xml:space="preserve">
<g>
	<circle fill="#F18360" cx="5" cy="5" r="5"/>
</g>
<g opacity="0.7">
	<circle fill="#103138" cx="5" cy="5" r="2"/>
</g>
<g opacity="0.3">
	<g>
		<path fill="#FFFFFF" d="M25,1c2.206,0,4,1.794,4,4s-1.794,4-4,4s-4-1.794-4-4S22.794,1,25,1 M25,0c-2.761,0-5,2.239-5,5
			s2.239,5,5,5s5-2.239,5-5S27.761,0,25,0L25,0z"/>
	</g>
</g>
<g opacity="0.3">
	<g>
		<path fill="#FFFFFF" d="M45,1c2.206,0,4,1.794,4,4s-1.794,4-4,4s-4-1.794-4-4S42.794,1,45,1 M45,0c-2.761,0-5,2.239-5,5
			s2.239,5,5,5s5-2.239,5-5S47.761,0,45,0L45,0z"/>
	</g>
</g>
</svg>
