<?xml version="1.0" encoding="utf-8"?>
<!-- Generator: Adobe Illustrator 17.0.0, SVG Export Plug-In . SVG Version: 6.00 Build 0)  -->
<!DOCTYPE svg PUBLIC "-//W3C//DTD SVG 1.1//EN" "http://www.w3.org/Graphics/SVG/1.1/DTD/svg11.dtd">
<svg version="1.1" id="Layer_1" xmlns="http://www.w3.org/2000/svg" xmlns:xlink="http://www.w3.org/1999/xlink" x="0px" y="0px"
	 width="11.497px" height="13px" viewBox="0 0 11.497 13" enable-background="new 0 0 11.497 13" xml:space="preserve">
<g>
	<g>
		<path fill="#F18360" d="M0.698,10.798C0.243,10.354,0,9.751,0,9.115C0,8.48,0.243,7.887,0.698,7.432L1.281,6.85
			c0.201,0.392,0.466,0.751,0.794,1.069l0.191,0.19L1.26,9.115l2.615,2.626l4.118-4.118L5.749,5.378L6.86,4.266
			c0.063,0.053,0.138,0.106,0.201,0.18l1.493,1.493c0.932,0.932,0.932,2.435,0,3.367l-2.996,2.995C5.113,12.746,4.51,13,3.874,13
			c-0.635,0-1.228-0.244-1.683-0.699L0.698,10.798z M2.943,7.062C2.488,6.606,2.244,6.013,2.244,5.378s0.244-1.239,0.699-1.683
			l2.996-2.996C6.384,0.244,6.987,0,7.622,0C8.258,0,8.85,0.244,9.305,0.699l1.493,1.492c0.455,0.455,0.699,1.048,0.699,1.684
			c0,0.646-0.508,1.503-0.953,1.948L10.237,6.13c-0.222-0.381-0.498-0.731-0.826-1.059l-0.18-0.18l1.006-1.016L7.622,1.26
			L3.504,5.378l2.244,2.244L4.626,8.734c-0.053-0.053-0.127-0.116-0.191-0.18L2.943,7.062z"/>
	</g>
</g>
</svg>
